<?xml version="1.0" encoding="utf-8"?>
<!-- Generator: Adobe Illustrator 23.0.2, SVG Export Plug-In . SVG Version: 6.00 Build 0)  -->
<svg version="1.1" xmlns="http://www.w3.org/2000/svg" xmlns:xlink="http://www.w3.org/1999/xlink" x="0px" y="0px"
	 viewBox="0 0 1801 754" style="enable-background:new 0 0 1801 754;" xml:space="preserve">
<style type="text/css">
	.st0{display:none;}
	.st1{display:inline;}
	.st2{fill:none;}
	.st3{fill:#FF5415;}
	.st4{fill:#FFFFFF;}
</style>
<g id="Layer_3" class="st0">
	<g class="st1">
		<path class="st2" d="M961.26,520.03c10.53,8.33,26.12,12.55,46.34,12.55c37.67,0,62-15.66,76.34-49.23v-35.11h-76.34
			c-22.3,0-38.39,3.87-47.82,11.51c-8.75,7.09-12.82,16.24-12.82,28.81C946.96,502.32,951.5,512.32,961.26,520.03z"/>
		<path d="M838.68,500.29c-2.98-3.19-7.25-4.89-11.59-4.62c-4.36,0.27-8.37,2.47-10.93,6.01c-7.46,10.29-16.71,17.79-28.27,22.93
			c-11.89,5.29-25.12,7.97-39.31,7.97c-18.18,0-33.98-4.04-48.31-12.34c-14.23-8.24-25.04-19.38-33.05-34.06
			c-8-14.67-12.06-31.89-12.06-51.17c0-18.99,4.07-36.15,12.09-50.99c7.98-14.77,18.75-25.88,32.93-33.96
			c14.15-8.07,30.44-12.16,48.4-12.16c14.18,0,27.4,2.68,39.31,7.97c11.56,5.14,20.81,12.64,28.27,22.93
			c2.56,3.53,6.57,5.74,10.93,6.01c4.38,0.27,8.61-1.42,11.59-4.62l6.46-6.93c4.91-5.26,5.26-13.31,0.83-18.97
			c-11.3-14.47-25.69-25.65-42.77-33.22c-16.74-7.42-35.12-11.18-54.63-11.18c-24.94,0-47.72,5.77-67.71,17.15
			c-20.16,11.47-36.11,27.76-47.39,48.41c-11.14,20.4-16.79,43.81-16.79,69.57c0,25.77,5.65,49.18,16.79,69.57
			c11.26,20.62,27.18,36.97,47.31,48.59c20.01,11.56,42.82,17.43,67.79,17.43c19.52,0,37.9-3.76,54.63-11.18
			c17.08-7.57,31.46-18.75,42.77-33.22c4.43-5.67,4.07-13.71-0.84-18.97L838.68,500.29z"/>
		<path d="M1096.08,325.52c-17.38-17.01-42.18-25.64-73.71-25.64c-19.57,0-38.59,3.51-56.52,10.45c-18.1,7-33.73,16.84-46.48,29.24
			c-2.8,2.73-4.39,6.47-4.42,10.38s1.52,7.67,4.28,10.44l6.46,6.46c5.59,5.58,14.61,5.72,20.36,0.3
			c9.39-8.85,20.82-16.02,33.98-21.31c13.11-5.27,27.51-7.95,42.79-7.95c20.83,0,36.4,4.95,46.28,14.71
			c9.84,9.72,14.82,25.18,14.82,45.93v11.7h-75.88c-33.86,0-58.25,7.01-74.56,21.45c-16.6,14.69-25.01,33.99-25.01,57.35
			c0,24.84,9.35,45.04,27.78,60.04c17.53,14.28,41.53,21.52,71.33,21.52c24.41,0,45.8-5.35,63.57-15.9c4.53-2.7,8.79-5.67,12.77-8.9
			v8.8c0,8.07,6.55,14.62,14.62,14.62h9.23c8.07,0,14.62-6.55,14.62-14.62V398.07C1122.41,367.03,1113.55,342.63,1096.08,325.52
			C1096.08,325.52,1096.08,325.52,1096.08,325.52z M959.78,459.75c9.43-7.64,25.52-11.51,47.82-11.51h76.34v35.11
			c-14.34,33.57-38.66,49.23-76.34,49.23c-20.23,0-35.82-4.22-46.34-12.55c-9.76-7.71-14.3-17.71-14.3-31.47
			C946.96,475.99,951.03,466.84,959.78,459.75z"/>
		<path d="M1358.21,522.09c-5.59-5.59-14.6-5.72-20.36-0.31c-7.72,7.27-17.43,10.8-29.69,10.8c-11.88,0-20.31-2.86-25.78-8.73
			c-5.67-6.09-8.55-15.79-8.55-28.82V339.27h66.18c8.07,0,14.62-6.55,14.62-14.62v-8.77c0-8.07-6.55-14.62-14.62-14.62h-66.18
			v-37.56c0-8.07-6.55-14.62-14.62-14.62h-9.23c-8.07,0-14.62,6.55-14.62,14.62v37.56h-31.55c-8.07,0-14.62,6.55-14.62,14.62v8.77
			c0,8.07,6.55,14.62,14.62,14.62h31.55v158.06c0,21.62,6.39,39.36,18.98,52.73c12.82,13.62,30.77,20.53,53.35,20.53
			c10.53,0,20.91-1.75,30.85-5.18c10.66-3.68,19.55-9.22,26.4-16.47c5.44-5.75,5.31-14.79-0.29-20.38L1358.21,522.09z"/>
		<path d="M1565.51,522.09c-5.59-5.59-14.6-5.72-20.35-0.31c-7.72,7.27-17.43,10.8-29.69,10.8c-11.88,0-20.31-2.86-25.78-8.73
			c-5.67-6.09-8.55-15.79-8.55-28.82V339.27h66.18c8.07,0,14.62-6.55,14.62-14.62v-8.77c0-8.07-6.55-14.62-14.62-14.62h-66.18
			v-37.56c0-8.07-6.55-14.62-14.62-14.62h-9.23c-8.07,0-14.62,6.55-14.62,14.62v37.56h-31.55c-8.07,0-14.62,6.55-14.62,14.62v8.77
			c0,8.07,6.55,14.62,14.62,14.62h31.55v158.06c0,21.62,6.39,39.36,18.98,52.73c12.82,13.62,30.77,20.53,53.35,20.53
			c10.53,0,20.91-1.75,30.85-5.18c10.66-3.68,19.55-9.22,26.4-16.47c5.44-5.75,5.31-14.79-0.29-20.38L1565.51,522.09z"/>
		<path class="st3" d="M1672.44,211.23c-7.28,0-13.8,2.68-18.88,7.75c-5.06,5.07-7.74,11.59-7.74,18.87
			c0,6.81,2.56,13.14,7.42,18.31c5.1,5.44,11.74,8.31,19.2,8.31c6.98,0,13.43-2.76,18.65-7.98c5.22-5.22,7.98-11.67,7.98-18.65
			c0-7.46-2.87-14.1-8.33-19.22C1685.56,213.79,1679.23,211.23,1672.44,211.23z"/>
		<path d="M1677.06,301.26h-9.23c-8.07,0-14.62,6.55-14.62,14.62v238.7c0,8.07,6.55,14.62,14.62,14.62h9.23
			c8.07,0,14.62-6.55,14.62-14.62v-238.7C1691.68,307.81,1685.13,301.26,1677.06,301.26z"/>
		<path d="M1936.72,528.55l-6.46-6.46c-5.59-5.59-14.6-5.72-20.36-0.31c-7.72,7.27-17.43,10.8-29.69,10.8
			c-11.88,0-20.31-2.86-25.78-8.73c-5.67-6.09-8.55-15.79-8.55-28.82V339.27h66.18c8.07,0,14.62-6.55,14.62-14.62v-8.77
			c0-8.07-6.55-14.62-14.62-14.62h-66.18v-37.56c0-8.07-6.55-14.62-14.62-14.62h-9.23c-8.07,0-14.62,6.55-14.62,14.62v37.56h-31.55
			c-8.07,0-14.62,6.55-14.62,14.62v8.77c0,8.07,6.55,14.62,14.62,14.62h31.55v158.06c0,21.62,6.39,39.36,18.98,52.73
			c12.82,13.62,30.77,20.53,53.35,20.53c10.53,0,20.91-1.75,30.85-5.18c10.66-3.68,19.55-9.22,26.4-16.47
			C1942.44,543.18,1942.31,534.14,1936.72,528.55z"/>
	</g>
</g>
<g id="Layer_1" class="st0">
	<g class="st1">
		<circle class="st3" cx="934.42" cy="376.57" r="651.58"/>
		<ellipse class="st4" cx="934.97" cy="460.08" rx="427.86" ry="286.99"/>
		<polyline class="st4" points="1114.39,199.54 1362.83,56.47 1320.19,335.05 		"/>
		<polyline class="st4" points="787.95,199.54 539.5,56.47 582.15,335.05 		"/>
		<circle class="st3" cx="787.95" cy="389.34" r="54.3"/>
		<circle class="st3" cx="1082" cy="389.34" r="54.3"/>
		<g>
			<path class="st3" d="M988.92,588.62c-21.8-4.97-41.06-18.25-53.94-36.39v-0.01c-12.88,18.15-32.15,31.44-53.95,36.41
				c-11.46,2.74-23.22,3.04-34.89,0.91c-4.06-0.71-8.01-1.72-11.87-3.04c26.06,10.55,63.89,19.47,100.7,19.47v0c0,0,0,0,0.01,0
				c0,0,0,0,0.01,0v0c36.81,0,74.64-8.93,100.7-19.47c-3.85,1.32-7.81,2.33-11.87,3.04C1012.14,591.67,1000.38,591.36,988.92,588.62
				z"/>
			<path class="st3" d="M1096.93,493.59c-0.61-8.32-7.81-14.5-16.23-14c-8.42,0.61-14.71,7.91-14.1,16.23
				c2.23,30.53-18.86,58.52-48.17,63.79c-7.5,1.32-15.11,1.12-22.62-0.61c-18.05-4.16-33.47-16.73-41.38-33.57
				c-1.52-3.45-6.9-24.75,6.69-42.9c0-0.1,0.1-0.1,0.1-0.2l0.1-0.1c0-0.3-1.72,0.3-5.98,7.3c-0.41-8.01-12.26,9.01-20.37,9.13v0
				c-8.11-0.1-19.98-17.14-20.39-9.13c-4.26-7-5.98-7.61-5.98-7.3l0.1,0.1c0,0.1,0.1,0.1,0.1,0.2c13.59,18.15,8.21,39.45,6.69,42.9
				c-7.91,16.84-23.33,29.41-41.38,33.57c-7.5,1.72-15.11,1.93-22.62,0.61c-29.31-5.27-50.41-33.27-48.17-63.79
				c0.61-8.32-5.68-15.62-14.1-16.23c-8.42-0.51-15.62,5.68-16.23,14c-2.23,30.22,10.95,58.92,33.06,76.98
				c0.51,0.51,1.01,0.91,1.52,1.32c1.42,1.22,3.14,2.43,4.97,3.65c6.49,4.66,13.59,8.21,21.1,10.75c0.2,0.1,0.41,0.2,0.61,0.2
				c3.85,1.32,7.81,2.33,11.87,3.04c11.66,2.13,23.43,1.83,34.89-0.91c21.81-4.97,41.07-18.26,53.95-36.41v0.01
				c12.88,18.15,32.14,31.43,53.94,36.39c11.46,2.74,23.22,3.04,34.89,0.91c4.06-0.71,8.01-1.72,11.87-3.04c0.2,0,0.41-0.1,0.61-0.2
				c7.5-2.54,14.6-6.09,21.1-10.75c1.83-1.22,3.55-2.43,4.97-3.65c0.51-0.41,1.01-0.81,1.52-1.32
				C1085.98,552.52,1099.16,523.82,1096.93,493.59z"/>
			<path class="st3" d="M914.59,489.54c0.41-8.01,12.27,9.03,20.39,9.13v0c8.11-0.12,19.97-17.13,20.37-9.13
				c4.26-7,5.98-7.61,5.98-7.3l4.16-5.07l30.73-37.52h-61.25h-0.01h-61.25l30.73,37.52l4.16,5.07
				C908.61,481.93,910.33,482.54,914.59,489.54z"/>
		</g>
		<g>
			<polygon class="st4" points="904.83,226.59 947.5,3.78 1111.05,41.71 1094.45,77.26 978.31,46.45 945.13,245.55 890.61,262.14 
							"/>
			<circle class="st4" cx="1118.83" cy="65.69" r="61.91"/>
		</g>
	</g>
</g>
<g id="Layer_2">
	<g>
		<circle class="st3" cx="406.21" cy="376.57" r="237.85"/>
		<ellipse class="st4" cx="406.41" cy="407.05" rx="156.19" ry="104.76"/>
		<polyline class="st4" points="471.91,311.95 562.6,259.72 547.03,361.41 		"/>
		<polyline class="st4" points="352.74,311.95 262.05,259.72 277.62,361.41 		"/>
		<circle class="st3" cx="352.74" cy="381.23" r="19.82"/>
		<circle class="st3" cx="460.09" cy="381.23" r="19.82"/>
		<g>
			<path class="st3" d="M426.11,453.98c-7.96-1.81-14.99-6.66-19.69-13.29v-0.01c-4.7,6.63-11.74,11.48-19.7,13.29
				c-4.18,1-8.48,1.11-12.74,0.33c-1.48-0.26-2.92-0.63-4.33-1.11c9.51,3.85,23.32,7.11,36.76,7.11v0c0,0,0,0,0,0s0,0,0,0v0
				c13.44,0,27.24-3.26,36.76-7.11c-1.41,0.48-2.85,0.85-4.33,1.11C434.58,455.09,430.29,454.98,426.11,453.98z"/>
			<path class="st3" d="M465.53,419.29c-0.22-3.04-2.85-5.29-5.92-5.11c-3.07,0.22-5.37,2.89-5.15,5.92
				c0.81,11.14-6.89,21.36-17.59,23.29c-2.74,0.48-5.52,0.41-8.26-0.22c-6.59-1.52-12.22-6.11-15.1-12.25
				c-0.56-1.26-2.52-9.03,2.44-15.66c0-0.04,0.04-0.04,0.04-0.07l0.04-0.04c0-0.11-0.63,0.11-2.18,2.67
				c-0.15-2.92-4.48,3.29-7.44,3.33v0c-2.96-0.04-7.29-6.26-7.44-3.33c-1.55-2.55-2.18-2.78-2.18-2.67l0.04,0.04
				c0,0.04,0.04,0.04,0.04,0.07c4.96,6.63,3,14.4,2.44,15.66c-2.89,6.15-8.51,10.74-15.1,12.25c-2.74,0.63-5.52,0.7-8.26,0.22
				c-10.7-1.93-18.4-12.14-17.59-23.29c0.22-3.04-2.07-5.7-5.15-5.92c-3.07-0.19-5.7,2.07-5.92,5.11c-0.81,11.03,4,21.51,12.07,28.1
				c0.19,0.19,0.37,0.33,0.56,0.48c0.52,0.44,1.15,0.89,1.81,1.33c2.37,1.7,4.96,3,7.7,3.92c0.07,0.04,0.15,0.07,0.22,0.07
				c1.41,0.48,2.85,0.85,4.33,1.11c4.26,0.78,8.55,0.67,12.74-0.33c7.96-1.81,14.99-6.66,19.7-13.29v0.01
				c4.7,6.62,11.73,11.47,19.69,13.29c4.18,1,8.48,1.11,12.74,0.33c1.48-0.26,2.92-0.63,4.33-1.11c0.07,0,0.15-0.04,0.22-0.07
				c2.74-0.93,5.33-2.22,7.7-3.92c0.67-0.44,1.3-0.89,1.81-1.33c0.19-0.15,0.37-0.3,0.56-0.48
				C461.54,440.8,466.35,430.32,465.53,419.29z"/>
			<path class="st3" d="M398.97,417.81c0.15-2.92,4.48,3.3,7.44,3.33v0c2.96-0.04,7.29-6.25,7.44-3.33
				c1.55-2.55,2.18-2.78,2.18-2.67l1.52-1.85l11.22-13.7h-22.36h0h-22.36l11.22,13.7l1.52,1.85
				C396.79,415.03,397.42,415.25,398.97,417.81z"/>
		</g>
		<g>
			<polygon class="st4" points="395.41,321.82 410.99,240.49 470.69,254.33 464.63,267.31 422.23,256.06 410.12,328.74 
				390.22,334.8 			"/>
			<circle class="st4" cx="473.53" cy="263.08" r="22.6"/>
		</g>
	</g>
	<g>
		<path class="st2" d="M954.63,485.56c8,6.33,19.84,9.54,35.21,9.54c28.62,0,47.11-11.9,58-37.4v-26.68h-58
			c-16.94,0-29.17,2.94-36.33,8.75c-6.65,5.39-9.74,12.34-9.74,21.89C943.77,472.11,947.22,479.71,954.63,485.56z"/>
		<path d="M861.51,470.56c-2.26-2.43-5.51-3.72-8.81-3.51c-3.31,0.2-6.36,1.88-8.31,4.56c-5.67,7.82-12.69,13.52-21.48,17.42
			c-9.03,4.02-19.08,6.06-29.86,6.06c-13.81,0-25.82-3.07-36.71-9.38c-10.81-6.26-19.02-14.73-25.11-25.88
			c-6.08-11.15-9.17-24.23-9.17-38.88c0-14.43,3.09-27.47,9.19-38.74c6.06-11.22,14.25-19.66,25.02-25.8
			c10.75-6.13,23.13-9.24,36.77-9.24c10.77,0,20.82,2.04,29.86,6.06c8.78,3.91,15.81,9.6,21.48,17.42c1.95,2.68,4.99,4.36,8.3,4.56
			c3.33,0.2,6.54-1.08,8.81-3.51l4.91-5.26c3.73-4,4-10.11,0.63-14.41c-8.59-10.99-19.52-19.49-32.49-25.24
			c-12.72-5.64-26.68-8.49-41.51-8.49c-18.95,0-36.26,4.38-51.45,13.03c-15.32,8.71-27.43,21.09-36,36.78
			c-8.47,15.5-12.76,33.28-12.76,52.86c0,19.58,4.29,37.36,12.76,52.85c8.55,15.67,20.65,28.09,35.94,36.92
			c15.2,8.79,32.53,13.24,51.51,13.24c14.83,0,28.8-2.86,41.51-8.49c12.97-5.75,23.91-14.24,32.49-25.24
			c3.36-4.31,3.09-10.42-0.63-14.41L861.51,470.56z"/>
		<path d="M1057.07,337.78c-13.21-12.93-32.05-19.48-56-19.48c-14.87,0-29.32,2.67-42.94,7.94c-13.75,5.32-25.63,12.79-35.31,22.22
			c-2.13,2.07-3.34,4.91-3.36,7.89s1.15,5.83,3.25,7.93l4.91,4.91c4.25,4.24,11.1,4.35,15.47,0.23
			c7.13-6.73,15.82-12.17,25.82-16.19c9.96-4.01,20.9-6.04,32.51-6.04c15.82,0,27.66,3.76,35.16,11.17
			c7.47,7.39,11.26,19.13,11.26,34.9v8.89h-57.65c-25.72,0-44.25,5.33-56.65,16.29c-12.61,11.16-19,25.82-19,43.57
			c0,18.87,7.1,34.22,21.1,45.62c13.32,10.85,31.55,16.35,54.2,16.35c18.55,0,34.8-4.06,48.29-12.08c3.45-2.05,6.68-4.3,9.7-6.76
			v6.68c0,6.13,4.97,11.11,11.11,11.11h7.02c6.13,0,11.11-4.97,11.11-11.11V392.9C1077.07,369.33,1070.34,350.78,1057.07,337.78
			C1057.07,337.78,1057.07,337.78,1057.07,337.78z M953.51,439.77c7.17-5.8,19.39-8.75,36.33-8.75h58v26.68
			c-10.89,25.5-29.38,37.4-58,37.4c-15.37,0-27.21-3.21-35.21-9.54c-7.41-5.86-10.86-13.45-10.86-23.91
			C943.77,452.11,946.86,445.15,953.51,439.77z"/>
		<path d="M1256.22,487.13c-4.24-4.24-11.09-4.35-15.46-0.23c-5.87,5.52-13.25,8.21-22.55,8.21c-9.02,0-15.43-2.17-19.58-6.63
			c-4.31-4.63-6.49-12-6.49-21.9V348.23h50.28c6.13,0,11.11-4.97,11.11-11.11v-6.67c0-6.13-4.97-11.11-11.11-11.11h-50.28v-28.53
			c0-6.13-4.97-11.11-11.11-11.11H1174c-6.13,0-11.11,4.97-11.11,11.11v28.53h-23.97c-6.13,0-11.11,4.97-11.11,11.11v6.67
			c0,6.13,4.97,11.11,11.11,11.11h23.97v120.09c0,16.43,4.85,29.91,14.42,40.06c9.74,10.35,23.38,15.6,40.54,15.6
			c8,0,15.89-1.33,23.44-3.94c8.1-2.8,14.85-7.01,20.06-12.52c4.13-4.37,4.03-11.23-0.22-15.48L1256.22,487.13z"/>
		<path d="M1413.72,487.13c-4.24-4.24-11.09-4.35-15.46-0.23c-5.87,5.52-13.25,8.21-22.55,8.21c-9.02,0-15.43-2.17-19.58-6.63
			c-4.31-4.63-6.49-12-6.49-21.9V348.23h50.28c6.13,0,11.11-4.97,11.11-11.11v-6.67c0-6.13-4.97-11.11-11.11-11.11h-50.28v-28.53
			c0-6.13-4.97-11.11-11.11-11.11h-7.02c-6.13,0-11.11,4.97-11.11,11.11v28.53h-23.97c-6.13,0-11.11,4.97-11.11,11.11v6.67
			c0,6.13,4.97,11.11,11.11,11.11h23.97v120.09c0,16.43,4.85,29.91,14.42,40.06c9.74,10.35,23.38,15.6,40.54,15.6
			c8,0,15.89-1.33,23.44-3.94c8.1-2.8,14.85-7.01,20.06-12.52c4.13-4.37,4.03-11.23-0.22-15.48L1413.72,487.13z"/>
		<path class="st3" d="M1494.96,250.95c-5.53,0-10.49,2.03-14.35,5.89c-3.84,3.85-5.88,8.81-5.88,14.34c0,5.17,1.95,9.98,5.64,13.91
			c3.87,4.13,8.92,6.31,14.59,6.31c5.3,0,10.2-2.1,14.17-6.06c3.97-3.96,6.06-8.86,6.06-14.17c0-5.67-2.18-10.71-6.33-14.6
			C1504.93,252.9,1500.12,250.95,1494.96,250.95z"/>
		<path d="M1498.47,319.35h-7.02c-6.13,0-11.11,4.97-11.11,11.11v181.36c0,6.13,4.97,11.11,11.11,11.11h7.02
			c6.13,0,11.11-4.97,11.11-11.11V330.46C1509.57,324.33,1504.6,319.35,1498.47,319.35z"/>
		<path d="M1695.75,492.04l-4.91-4.91c-4.25-4.24-11.09-4.35-15.46-0.23c-5.87,5.52-13.24,8.21-22.55,8.21
			c-9.02,0-15.43-2.17-19.58-6.63c-4.31-4.63-6.49-12-6.49-21.9V348.23h50.28c6.13,0,11.11-4.97,11.11-11.11v-6.67
			c0-6.13-4.97-11.11-11.11-11.11h-50.28v-28.53c0-6.13-4.97-11.11-11.11-11.11h-7.02c-6.13,0-11.11,4.97-11.11,11.11v28.53h-23.97
			c-6.13,0-11.11,4.97-11.11,11.11v6.67c0,6.13,4.97,11.11,11.11,11.11h23.97v120.09c0,16.43,4.85,29.91,14.42,40.06
			c9.74,10.35,23.38,15.6,40.54,15.6c8,0,15.89-1.33,23.44-3.94c8.1-2.8,14.85-7.01,20.06-12.52
			C1700.1,503.15,1700,496.29,1695.75,492.04z"/>
	</g>
</g>
</svg>
